<svg width="237" height="272" viewBox="0 0 237 272" fill="none" xmlns="http://www.w3.org/2000/svg">
<path d="M31.6398 272H20.5339C19.2317 272 18.1249 271.573 17.2133 270.719C16.3018 269.846 15.846 268.76 15.846 267.46V262.197C15.846 260.897 16.3018 259.82 17.2133 258.966C18.1249 258.094 19.2317 257.657 20.5339 257.657H31.6398V260.999H20.5339C19.641 260.999 19.1945 261.398 19.1945 262.197V267.46C19.1945 268.259 19.641 268.658 20.5339 268.658H31.6398V272Z" fill="#CE1B2D"/>
<path d="M50.8438 267.46C50.8438 268.76 50.388 269.846 49.4765 270.719C48.565 271.573 47.4581 272 46.1559 272H37.7288C36.4266 272 35.3198 271.573 34.4082 270.719C33.4967 269.846 33.0409 268.76 33.0409 267.46V262.197C33.0409 260.897 33.4967 259.82 34.4082 258.966C35.3198 258.094 36.4266 257.657 37.7288 257.657H46.1559C47.4581 257.657 48.565 258.094 49.4765 258.966C50.388 259.82 50.8438 260.897 50.8438 262.197V267.46ZM47.4953 267.46V262.197C47.4953 261.398 47.0488 260.999 46.1559 260.999H37.7288C36.8359 260.999 36.3894 261.398 36.3894 262.197V267.46C36.3894 268.259 36.8359 268.658 37.7288 268.658H46.1559C47.0488 268.658 47.4953 268.259 47.4953 267.46Z" fill="#CE1B2D"/>
<path d="M70.8924 272H67.5438V263.255L61.5723 271.749L55.6008 263.255V272H52.2523V257.657H55.7683L61.5723 265.929L67.4043 257.657H70.8924V272Z" fill="#CE1B2D"/>
<path d="M87.6007 260.999H75.6298V263.144H86.8194V266.486H75.6298V268.658H87.5728V272H72.2812V257.657H87.6007V260.999Z" fill="#CE1B2D"/>
<path d="M104.305 272H100.957L92.3341 262.336V272H88.9856V257.657H92.3341L100.957 267.238V257.657H104.305V272Z" fill="#CE1B2D"/>
<path d="M121.986 260.999H115.512V272H112.164V260.999H105.69V257.657H121.986V260.999Z" fill="#CE1B2D"/>
<path d="M140.792 272H137.444V267.433H128.626V264.091H137.444V262.085C137.444 261.361 137.202 260.999 136.718 260.999H127.231C126.766 260.999 126.533 261.361 126.533 262.085V272H123.185V262.085C123.185 260.879 123.557 259.839 124.301 258.966C125.064 258.094 126.04 257.657 127.231 257.657H136.718C137.927 257.657 138.904 258.094 139.648 258.966C140.411 259.839 140.792 260.879 140.792 262.085V272Z" fill="#CE1B2D"/>
<path d="M159.032 272H154.456L147.285 263.951H155.907C156.521 263.951 156.828 263.459 156.828 262.475C156.828 261.491 156.521 260.999 155.907 260.999H145.527V272H142.178V257.657H156.102C157.386 257.657 158.4 258.159 159.144 259.161C159.832 260.071 160.176 261.176 160.176 262.475C160.176 263.775 159.832 264.88 159.144 265.789C158.4 266.792 157.386 267.293 156.102 267.293H154.819L159.032 272Z" fill="#CE1B2D"/>
<path d="M164.929 272H161.58V257.657H164.929V272Z" fill="#CE1B2D"/>
<path d="M183.455 267.572C183.455 268.779 183.092 269.809 182.367 270.663C181.585 271.554 180.599 272 179.409 272H167.019V268.658H179.409C179.874 268.658 180.106 268.296 180.106 267.572C180.106 266.848 179.874 266.486 179.409 266.486H170.396C169.205 266.486 168.219 266.04 167.438 265.149C166.694 264.313 166.322 263.292 166.322 262.085C166.322 260.879 166.703 259.839 167.466 258.966C168.229 258.094 169.205 257.657 170.396 257.657H182.785V260.999H170.396C169.931 260.999 169.698 261.361 169.698 262.085C169.698 262.791 169.931 263.144 170.396 263.144H179.409C180.599 263.144 181.585 263.589 182.367 264.481C183.092 265.335 183.455 266.365 183.455 267.572Z" fill="#CE1B2D"/>
<path d="M201.148 260.999H194.674V272H191.326V260.999H184.852V257.657H201.148V260.999Z" fill="#CE1B2D"/>
<path d="M219.954 272H216.606V267.433H207.788V264.091H216.606V262.085C216.606 261.361 216.364 260.999 215.88 260.999H206.393C205.928 260.999 205.695 261.361 205.695 262.085V272H202.347V262.085C202.347 260.879 202.719 259.839 203.463 258.966C204.225 258.094 205.202 257.657 206.393 257.657H215.88C217.089 257.657 218.066 258.094 218.81 258.966C219.573 259.839 219.954 260.879 219.954 262.085V272Z" fill="#CE1B2D"/>
<path d="M222.402 0.289409C222.276 0.550645 222.402 1.23639 222.652 1.75886C222.935 2.28133 223.595 3.97936 224.128 5.51412C224.662 7.04889 225.321 8.87753 225.541 9.59589C225.792 10.3143 226.42 12.4368 226.954 14.3308C227.487 16.2248 228.21 19.0004 228.555 20.5352C228.9 22.07 229.528 25.1395 229.936 27.3926C230.344 29.6458 231.003 34.2827 231.38 37.6788C231.789 41.3034 232.103 45.7771 232.103 48.4547C232.103 52.0141 231.945 53.6468 231.443 55.802C231.066 57.3368 230.407 59.4594 229.936 60.5369C229.465 61.6145 228.461 63.4432 227.738 64.6187C227.016 65.7943 225.792 67.5249 225.038 68.472C224.285 69.4189 222.464 71.2149 220.989 72.4885C219.199 74.0232 217.096 75.3947 214.553 76.7335C212.481 77.7785 209.655 78.954 208.274 79.3132C206.892 79.7051 204.067 80.2602 201.995 80.6194C199.922 80.9786 196.469 81.7623 194.303 82.3828C192.136 83.0032 188.401 84.2767 185.983 85.2237C183.566 86.1707 178.762 88.4238 175.309 90.1869L169.03 93.4202L166.519 91.983C160.428 94.8895 157.037 96.6525 155.06 97.763C153.081 98.9057 150.099 100.637 148.467 101.682C146.834 102.726 143.663 104.816 141.434 106.384C139.236 107.919 137.29 109.322 137.164 109.519C137.039 109.714 135.626 113.143 134.056 117.192C132.487 121.241 130.854 125.225 130.477 126.107C130.1 126.956 129.724 127.642 129.629 127.642C129.535 127.642 130.886 123.364 132.612 118.172L135.752 108.735C138.42 106.351 140.555 104.621 142.187 103.347C143.82 102.106 146.708 100.016 148.623 98.7423C150.539 97.4363 153.772 95.4117 155.844 94.2361C157.916 93.0604 161.024 91.4277 162.751 90.644C164.478 89.828 167.648 88.3912 169.815 87.4768C171.982 86.5299 175.309 85.1257 177.193 84.3747C179.076 83.6236 182.122 82.5461 183.942 81.9909C185.763 81.4358 188.558 80.6847 190.159 80.2929C191.729 79.9336 195.559 79.2806 198.604 78.8234C201.681 78.3663 205.511 77.6152 207.112 77.1907C208.682 76.7335 211.099 75.8192 212.418 75.1661C213.768 74.5131 216.06 73.1416 217.536 72.0966C219.01 71.0843 221.24 69.0924 222.527 67.6882C223.783 66.2514 225.29 64.2922 225.855 63.3126C226.451 62.3329 227.299 60.4716 227.738 59.2307C228.21 57.9898 228.775 55.9 229.057 54.6591C229.309 53.3856 229.59 49.7283 229.685 46.3322C229.81 42.7076 229.716 38.6584 229.496 36.2093C229.309 33.9562 228.775 30.3641 228.366 28.209C227.927 26.0538 227.362 23.5394 227.11 22.6577C226.828 21.6128 226.483 21.025 226.169 21.025C225.792 21.025 225.698 21.5801 225.698 24.2905C225.698 26.0864 225.478 29.5478 225.258 31.9643C225.007 34.3806 224.505 37.7767 224.096 39.4748C223.72 41.1728 222.998 43.8178 222.496 45.3526C221.962 46.8874 221.114 49.0099 220.581 50.0875C220.078 51.1651 219.074 52.9285 218.383 54.006C217.661 55.0836 216.31 56.8143 215.369 57.8919C214.396 58.9369 212.763 60.439 211.727 61.19C210.691 61.9411 208.964 63.0513 207.866 63.6065C206.798 64.1615 204.475 65.0432 202.685 65.5984C200.928 66.1208 198.133 66.7739 196.501 67.0351C194.868 67.3291 190.535 67.9822 186.925 68.5046C183.315 69.0597 178.417 69.8435 176.094 70.3006C173.771 70.7578 170.286 71.5089 168.402 71.966C166.519 72.4231 163.191 73.3375 161.024 73.9579C158.858 74.611 155.813 75.5579 154.274 76.0804C151.951 76.8642 151.386 76.9621 151.135 76.6029C150.947 76.3417 150.319 76.0478 149.722 75.9498C149.126 75.8519 145.578 75.1988 141.874 74.5456L135.124 73.3375C124.418 76.0152 121.184 76.8642 120.996 76.9294C120.807 76.9948 120.587 79.3132 120.462 82.3501C120.337 85.2563 120.086 91.2974 119.897 95.8036C119.74 100.278 119.363 109.322 119.113 115.886C118.861 122.45 118.641 128.164 118.641 128.622C118.641 129.079 118.61 129.373 118.516 129.274C118.453 129.176 118.139 123.364 117.887 116.376C117.606 109.388 117.228 100.049 117.072 95.6403C116.883 91.2322 116.632 85.2563 116.507 82.3501C116.38 79.3132 116.161 76.9948 115.973 76.9294C115.785 76.8642 112.551 76.0152 108.752 75.0681L101.845 73.3375C91.3908 75.1988 87.8428 75.8519 87.2464 75.9498C86.6499 76.0478 86.022 76.3417 85.8336 76.5702C85.5825 76.9294 84.9546 76.8315 82.5372 76.0152C80.9046 75.4927 77.5767 74.4804 75.1593 73.762C72.7419 73.0762 69.4769 72.1946 67.9385 71.8027C66.4002 71.4435 63.1979 70.7578 60.8747 70.3006C58.5514 69.8435 53.6852 69.0597 50.0434 68.5046C46.4016 67.9822 42.1005 67.3291 40.468 67.0351C38.8354 66.7739 36.01 66.1208 34.189 65.5657C32.3681 65.0105 29.8879 64.0636 28.6949 63.4105C27.5019 62.7574 25.7124 61.6145 24.7705 60.8634C23.8287 60.1124 22.3217 58.6756 21.4427 57.7286C20.595 56.749 19.3079 55.0836 18.5858 54.006C17.8951 52.9285 16.859 51.0998 16.294 49.9242C15.7288 48.7487 14.8184 46.3322 14.2219 44.5362C13.6567 42.7402 12.9033 39.8013 12.558 38.0053C12.2127 36.2093 11.7731 33.0418 11.6161 30.9846C11.4278 28.9274 11.2707 25.8253 11.2707 24.1272C11.2707 21.5475 11.1766 21.025 10.7999 21.025C10.4859 21.025 10.1406 21.6128 9.82656 22.6577C9.57543 23.5394 9.01029 26.0538 8.6022 28.209C8.19407 30.3641 7.69175 33.5643 7.53478 35.295C7.3464 37.0583 7.18943 40.7483 7.18943 43.4586C7.18943 46.2016 7.31501 49.6956 7.47198 51.2304C7.62896 52.7652 8.0057 55.051 8.28825 56.2919C8.6022 57.5327 9.2929 59.6226 9.85804 60.8634C10.4231 62.1043 11.522 64.0309 12.3068 65.1086C13.0603 66.1861 14.5987 67.9495 15.6974 69.027C16.8276 70.1047 18.5544 71.5741 19.5904 72.2925C20.6264 72.9783 22.6671 74.1865 24.1427 74.9702C25.6183 75.7212 28.1612 76.7009 29.7938 77.1581C31.4263 77.6152 35.3193 78.3663 38.4274 78.8234C41.5355 79.3132 45.3656 79.9663 46.904 80.3255C48.4423 80.6847 51.2051 81.4358 53.0259 81.9909C54.8469 82.5461 57.8607 83.6236 59.7759 84.3747C61.6909 85.1257 64.9874 86.5299 67.1536 87.4768C69.3199 88.3912 72.4908 89.828 74.2175 90.644C75.9442 91.4277 79.0523 93.0604 81.1244 94.2361C83.1965 95.4117 86.5243 97.5015 88.5022 98.8405C90.4803 100.18 93.6508 102.498 95.5665 104C97.4812 105.503 99.5221 107.2 100.15 107.788C101.186 108.768 101.593 109.714 104.326 117.944C105.989 122.907 107.34 127.185 107.34 127.38C107.34 127.664 107.255 127.696 107.088 127.478C106.931 127.283 105.926 124.965 104.89 122.254C103.854 119.543 102.285 115.592 101.437 113.438L99.8986 109.519C95.5664 106.384 92.6777 104.392 90.6995 103.118C88.722 101.812 85.1115 99.6243 82.6941 98.2531C80.2767 96.8811 76.5407 94.8895 74.3744 93.8442L70.4501 91.983L67.9385 93.4523C57.484 88.0972 52.6806 85.8768 50.5144 85.0278C48.3481 84.1788 44.8319 83.0032 42.6656 82.3828C40.4994 81.7623 37.046 80.9786 34.9739 80.6194C32.9019 80.2602 30.0763 79.6724 28.6949 79.3132C27.3136 78.954 24.8334 77.9744 23.2008 77.1581C21.5683 76.3417 19.3079 75.0355 18.1776 74.2518C17.0475 73.4681 15.0695 71.7701 13.7824 70.4312C12.4638 69.1251 10.6114 66.8066 9.63821 65.2718C8.66499 63.7371 7.44058 61.4513 6.93827 60.2104C6.40455 58.9695 5.74526 56.749 5.43132 55.3122C4.99178 53.4183 4.83481 51.4916 4.86621 48.2915C4.86621 45.8751 5.18016 41.1728 5.5569 37.8421C5.93363 34.5113 6.53014 30.1029 6.90688 28.0457C7.25222 25.9885 7.88012 22.821 8.28825 21.025C8.72778 19.229 9.48125 16.2248 10.015 14.3308C10.5486 12.4368 11.1138 10.5429 11.2707 10.0858C11.4278 9.62857 12.0556 7.79994 12.6835 6.00394C13.3428 4.20794 14.0335 2.34664 14.2847 1.85683C14.5358 1.33435 14.7242 0.877189 14.7242 0.779225C14.7242 0.681262 14.5044 0.550645 14.2533 0.452681C13.908 0.322063 13.0289 1.88948 10.8313 6.59172C9.19873 10.0204 7.25222 14.4941 6.46735 16.4533C5.71387 18.4127 4.58365 21.6781 3.95575 23.6374C3.32786 25.5966 2.4802 28.7641 2.04067 30.6581C1.63254 32.552 1.03603 35.4256 0.753478 37.0257C0.470923 38.6258 0.156974 42.6749 0.0627898 46.0057C-0.0627897 49.9568 -1.33058e-07 52.9937 0.251159 54.8224C0.470923 56.3571 0.973238 59.0675 1.41277 60.8634C1.8523 62.6594 2.73136 65.3698 3.35926 66.9045C3.98715 68.4393 5.21155 70.7904 6.05921 72.1293C6.90688 73.4681 8.31965 75.3621 9.19873 76.3417C10.0778 77.2887 11.6475 78.7255 12.6835 79.4765C13.7195 80.2602 15.5405 81.4031 16.7648 82.0236C17.9579 82.6767 20.2183 83.6236 21.7881 84.1788C23.3264 84.7012 27.0938 85.6809 30.1077 86.3339C33.1216 86.987 37.3599 88.032 39.5261 88.6524C41.6924 89.2728 44.9889 90.3181 46.904 90.9707C48.819 91.6241 51.6446 92.7998 53.1829 93.6157C54.7212 94.3994 56.6364 95.5099 57.4213 96.0652C58.2061 96.6204 59.2107 97.4042 59.6817 97.8282L60.5607 98.5789C56.9189 100.995 55.9143 101.812 55.9457 102.008C56.0085 102.204 58.0178 102.433 60.5921 102.531C63.0723 102.661 66.5257 103.053 68.2525 103.412C69.9792 103.772 72.2397 104.392 73.2757 104.816C74.3117 105.208 75.85 105.992 76.6977 106.547C77.5453 107.102 78.9267 108.376 79.7744 109.355C80.5906 110.335 81.7523 112.164 82.3488 113.438C82.9453 114.71 83.7301 117.16 84.0755 118.923C84.4522 120.654 84.7348 122.548 84.7348 123.07C84.7348 123.756 86.1789 126.434 89.8212 132.475C92.5838 137.079 95.6917 142.108 96.6647 143.643C97.6377 145.177 99.616 148.279 101.029 150.598C102.41 152.884 104.106 155.888 104.796 157.26C105.455 158.664 106.429 161.211 106.962 162.909C107.496 164.606 108.124 167.317 108.406 168.949C108.689 170.582 108.94 173.717 109.003 175.97C109.097 179.954 109.128 180.085 110.165 181.849C110.761 182.828 111.954 184.592 112.802 185.766C113.681 186.942 115.251 188.803 116.286 189.947C117.323 191.056 118.296 192.004 118.484 192.004C118.673 192.004 119.646 191.056 120.682 189.947C121.718 188.803 123.287 186.942 124.167 185.766C125.014 184.592 126.176 182.926 126.741 182.012C127.683 180.444 127.714 180.183 127.872 176.297C127.966 174.044 128.248 170.811 128.531 169.113C128.814 167.415 129.473 164.606 130.007 162.909C130.54 161.211 131.45 158.794 132.047 157.52C132.643 156.247 134.276 153.406 135.657 151.153C137.007 148.9 139.299 145.243 140.681 142.99C142.094 140.736 145.201 135.675 147.587 131.724C150.005 127.772 152.014 124.246 152.046 123.886C152.108 123.527 152.454 121.633 152.799 119.642C153.207 117.192 153.772 115.266 154.526 113.601C155.154 112.262 156.347 110.368 157.163 109.388C157.979 108.408 159.234 107.233 159.926 106.71C160.616 106.22 162.154 105.436 163.379 104.947C164.603 104.457 166.989 103.772 168.716 103.412C170.475 103.02 173.865 102.661 176.376 102.531C178.951 102.433 180.96 102.204 181.023 102.008C181.055 101.812 180.049 100.995 178.762 100.146L176.408 98.5789C177.758 97.4042 178.762 96.6204 179.548 96.0652C180.332 95.5099 182.216 94.3994 183.786 93.6157C185.355 92.7998 188.181 91.6241 190.065 90.9707C191.949 90.3181 194.586 89.4692 195.873 89.077C197.16 88.6851 199.012 88.1626 199.954 87.9014C200.896 87.6401 204.067 86.9217 207.018 86.3013C209.969 85.6809 213.611 84.7012 215.181 84.1788C216.75 83.6236 218.979 82.6767 220.203 82.0236C221.428 81.4031 223.249 80.2602 224.285 79.4765C225.321 78.7255 226.891 77.2887 227.77 76.3417C228.649 75.3621 230.062 73.4681 230.91 72.1293C231.757 70.7904 232.982 68.4393 233.61 66.9045C234.237 65.3698 235.054 62.9534 235.43 61.5165C235.776 60.0798 236.278 57.5 236.529 55.802C236.78 54.104 237 50.5773 237 47.9649C237 45.3526 236.843 41.9892 236.686 40.4544C236.497 38.9196 235.996 35.8502 235.556 33.597C235.117 31.3439 234.175 27.6212 233.483 25.2701C232.793 22.919 231.537 19.1963 230.658 16.9432C229.81 14.69 227.864 10.2164 226.326 6.98357C224.819 3.75079 223.343 0.81188 223.092 0.452681C222.684 -0.102445 222.558 -0.1351 222.402 0.289409ZM86.0847 131.495C85.8545 131.647 85.8755 132.594 86.1475 134.336C86.3674 135.773 86.7127 137.601 86.9324 138.418C87.1208 139.234 87.4975 140.606 87.7801 141.52C88.0313 142.402 88.5335 144.035 88.9103 145.112C89.2556 146.19 90.8882 149.879 92.489 153.276C94.7499 158.044 95.5665 160.165 96.0369 162.419C96.3821 164.051 96.7273 166.37 96.8534 167.643C97.0099 169.341 96.916 170.582 96.4769 172.541C96.163 173.979 95.5977 175.578 95.2516 176.101C94.9064 176.656 94.0595 177.506 93.3682 177.995C92.4264 178.68 91.6421 178.942 90.229 179.072C89.1928 179.138 88.1882 179.367 88.0313 179.53C87.8115 179.759 88.408 181 89.8212 183.22C90.9508 185.081 92.8029 187.824 93.9021 189.359C95.0012 190.861 97.2299 193.669 98.8943 195.564C100.526 197.457 103.226 200.167 104.859 201.637C106.492 203.074 108.878 205.065 110.165 206.077C111.452 207.058 113.838 208.723 115.407 209.736C117.009 210.748 118.39 211.564 118.484 211.564C118.579 211.564 119.96 210.748 121.53 209.736C123.131 208.723 125.517 207.09 126.804 206.077C128.091 205.065 130.508 203.074 132.141 201.604C133.774 200.135 136.317 197.555 137.792 195.857C139.267 194.159 141.088 191.971 141.874 190.991C142.659 190.012 144.605 187.138 146.206 184.624C147.808 182.109 149.094 179.856 149.032 179.595C148.968 179.301 148.372 179.105 147.054 179.072C146.018 179.007 144.73 178.746 144.228 178.485C143.726 178.223 142.847 177.506 142.313 176.917C141.78 176.297 141.088 174.926 140.743 173.848C140.304 172.411 140.178 171.04 140.178 168.624C140.209 166.37 140.46 164.346 141.026 162.093C141.591 159.708 142.47 157.39 144.291 153.603C145.672 150.729 147.242 147.202 147.775 145.765C148.309 144.329 149.032 142.141 149.408 140.867C149.754 139.594 150.319 137.046 150.633 135.153C151.072 132.605 151.135 131.659 150.884 131.462C150.664 131.332 150.319 131.495 150.099 131.789C149.879 132.116 148.058 135.021 146.081 138.255C144.071 141.487 141.78 145.079 140.963 146.255C140.147 147.431 138.608 149.847 137.604 151.643C136.567 153.439 135.124 156.084 134.433 157.52C133.742 158.958 132.769 161.243 132.298 162.582C131.859 163.921 131.167 166.337 130.791 167.97C130.257 170.321 130.132 172.117 130.069 176.95L129.975 182.991C127.149 187.04 124.669 189.947 122.628 192.037C120.62 194.159 118.735 195.889 118.484 195.889C118.233 195.889 116.349 194.159 114.309 192.037C112.3 189.947 109.82 187.04 108.814 185.604L106.993 182.991C106.837 171.334 106.743 170.191 106.02 167.317C105.581 165.521 104.765 162.876 104.231 161.439C103.697 160.002 102.316 157.063 101.186 154.908C100.055 152.754 98.3291 149.814 97.3873 148.378C96.4447 146.94 93.9334 143.055 91.8299 139.724C89.6951 136.394 87.7487 133.193 87.4661 132.605C87.1522 132.05 86.8068 131.495 86.6499 131.429C86.5243 131.332 86.2417 131.364 86.0847 131.495Z" fill="#CB1729"/>
<path fill-rule="evenodd" clip-rule="evenodd" d="M40.9907 223.169C44.3854 223.169 46.846 223.185 47.1618 223.211C47.4512 223.237 47.8854 223.298 48.1267 223.345C48.3679 223.393 48.6662 223.461 48.7846 223.5C48.9074 223.539 49.1311 223.62 49.289 223.676C49.4469 223.733 49.7232 223.858 49.9031 223.952C50.0828 224.047 50.3416 224.201 50.4732 224.296C50.6048 224.387 50.8284 224.576 50.9732 224.709C51.1135 224.843 51.3109 225.063 51.4118 225.191C51.5127 225.321 51.6399 225.498 51.6882 225.579C51.7407 225.661 51.8504 225.864 51.9381 226.031C52.0259 226.199 52.096 226.349 52.096 226.375C52.096 226.401 52.1224 226.466 52.153 226.526C52.1881 226.587 52.2671 226.836 52.3285 227.086C52.3942 227.336 52.4776 227.766 52.5127 228.045C52.5653 228.446 52.5785 229.096 52.5785 231.218C52.5785 233.37 52.5653 233.99 52.5127 234.416C52.4732 234.705 52.3942 235.126 52.3373 235.35C52.2758 235.574 52.1925 235.858 52.1487 235.974C52.1048 236.094 51.9951 236.335 51.9031 236.512C51.811 236.689 51.6705 236.934 51.5917 237.05C51.5127 237.171 51.3724 237.351 51.2803 237.455C51.1881 237.558 51.0302 237.717 50.9337 237.807C50.8372 237.899 50.6706 238.036 50.5609 238.118C50.4513 238.199 50.2934 238.307 50.2101 238.355C50.1267 238.406 49.8679 238.535 49.6399 238.648C49.4118 238.759 49.1267 238.875 49.0039 238.91C48.8855 238.944 48.596 239.022 48.3679 239.078C48.1399 239.134 47.6442 239.211 47.2715 239.246C46.71 239.297 45.6048 239.31 40.9776 239.31C37.8898 239.31 35.3503 239.297 35.3327 239.276C35.3152 239.258 35.2977 235.647 35.2933 231.248C35.2889 226.849 35.2977 223.229 35.3152 223.207C35.3327 223.185 37.5608 223.169 40.9907 223.169ZM38.7187 231.282V235.867C38.8723 235.905 40.7495 235.905 42.9951 235.901C47.0433 235.884 47.0785 235.884 47.4249 235.789C47.6179 235.737 47.8328 235.669 47.9074 235.634C47.9819 235.604 48.096 235.553 48.1705 235.518C48.2407 235.484 48.4206 235.341 48.5653 235.199C48.7671 235.005 48.8592 234.868 48.9513 234.653L49.0697 234.36C49.0697 229.152 49.0522 228.127 49.0214 228.011C48.9951 227.917 48.9381 227.77 48.8942 227.688C48.8504 227.606 48.7364 227.452 48.6443 227.348C48.5522 227.244 48.3898 227.103 48.2802 227.029C48.1705 226.961 47.9863 226.866 47.8635 226.819C47.7451 226.771 47.4951 226.703 47.3153 226.663C47.0258 226.604 46.4863 226.59 42.8811 226.578C39.2144 226.569 38.7714 226.573 38.745 226.634C38.7319 226.668 38.7187 228.76 38.7187 231.282ZM64.1137 223.19C65.8636 223.194 67.3505 223.211 67.425 223.225C67.4996 223.237 67.754 223.285 67.9953 223.332C68.2365 223.375 68.5435 223.448 68.6751 223.492C68.8066 223.535 69.0567 223.616 69.2233 223.676C69.39 223.736 69.5479 223.801 69.5742 223.818C69.6005 223.835 69.7452 223.917 69.9032 223.995C70.061 224.073 70.3461 224.258 70.5391 224.404C70.7321 224.546 70.9514 224.731 71.0259 224.808C71.1005 224.89 71.2716 225.092 71.3988 225.26C71.5303 225.432 71.719 225.734 71.8198 225.928C71.9251 226.126 72.0216 226.349 72.0391 226.419C72.0523 226.487 72.0962 226.595 72.1269 226.655C72.1575 226.715 72.1839 226.793 72.1839 226.828C72.1883 226.862 72.2146 226.97 72.2497 227.064C72.2892 227.159 72.3462 227.43 72.3856 227.667C72.4207 227.903 72.4646 228.166 72.4777 228.248C72.4909 228.33 72.5129 230.821 72.5216 233.779C72.5348 238.105 72.526 239.177 72.4821 239.237C72.4295 239.31 72.3199 239.314 70.7584 239.31C69.5128 239.306 69.083 239.293 69.0611 239.255C69.0392 239.224 69.0259 238.057 69.0259 236.663C69.0259 234.705 69.0128 234.11 68.9689 234.067C68.9251 234.024 67.9382 234.012 63.8285 234.015C59.8154 234.015 58.7232 234.029 58.6838 234.072C58.6443 234.11 58.6312 234.735 58.6312 236.697C58.6312 238.944 58.6224 239.271 58.5654 239.288C58.5303 239.302 57.7759 239.31 56.8899 239.31C55.6487 239.31 55.2627 239.297 55.2188 239.258C55.1706 239.211 55.1619 238.208 55.175 233.649C55.1882 228.527 55.1969 228.067 55.2671 227.731C55.311 227.529 55.3855 227.211 55.4381 227.021C55.4864 226.831 55.5742 226.561 55.6355 226.419C55.6926 226.276 55.8154 226.018 55.9031 225.846C55.9908 225.673 56.1443 225.429 56.2408 225.299C56.3373 225.174 56.4951 224.985 56.596 224.882C56.6969 224.782 56.8548 224.628 56.947 224.546C57.039 224.464 57.2364 224.317 57.3812 224.223C57.5259 224.128 57.7935 223.978 57.9732 223.892C58.1531 223.806 58.3811 223.702 58.4776 223.664C58.5741 223.62 58.754 223.56 58.8724 223.526C58.9952 223.492 59.3197 223.414 59.5961 223.353C59.8723 223.293 60.289 223.229 60.5172 223.211C60.7452 223.194 62.3636 223.181 64.1137 223.19ZM60.254 226.715C60.1224 226.75 59.9426 226.802 59.8548 226.836C59.7715 226.866 59.5698 226.974 59.4075 227.077C59.2451 227.176 59.1136 227.275 59.1136 227.301C59.1136 227.327 59.0873 227.369 59.0566 227.4C59.0259 227.426 58.947 227.551 58.8812 227.667C58.8153 227.787 58.7364 227.998 58.6969 228.14C58.6487 228.338 58.6312 228.652 58.6312 229.466C58.6312 230.374 58.6399 230.533 58.6969 230.551C58.7321 230.563 61.0479 230.572 63.8417 230.572C66.6312 230.572 68.9427 230.555 68.9733 230.538C69.0172 230.516 69.026 230.263 69.0172 229.302L69.004 228.097C68.7584 227.598 68.64 227.404 68.5829 227.344C68.526 227.284 68.3637 227.15 68.2277 227.051C68.0874 226.953 67.947 226.87 67.9207 226.87C67.89 226.87 67.8067 226.84 67.7321 226.806C67.6575 226.767 67.504 226.72 67.3812 226.694C67.2628 226.668 67.0128 226.634 66.833 226.612C66.6531 226.59 65.2803 226.578 63.7847 226.578C62.289 226.578 60.9382 226.595 60.7803 226.616C60.6224 226.634 60.3855 226.681 60.254 226.715ZM80.1884 223.169C87.2279 223.169 87.2717 223.169 87.3155 223.254C87.3419 223.306 87.3594 223.934 87.3594 224.869C87.3594 225.803 87.3419 226.431 87.3155 226.483C87.2717 226.569 87.2279 226.569 84.6313 226.569C82.5567 226.569 81.9778 226.582 81.9558 226.62C81.9339 226.651 81.9208 229.505 81.9208 232.961C81.9208 237.95 81.912 239.255 81.8682 239.288C81.8287 239.314 81.2234 239.323 78.4777 239.288L78.4339 226.59L75.8023 226.582C73.7233 226.573 73.1576 226.561 73.1137 226.517C73.0742 226.474 73.0611 226.087 73.0567 224.851C73.0567 223.965 73.0655 223.225 73.083 223.207C73.0961 223.185 76.298 223.169 80.1884 223.169ZM96.9428 223.181C98.6796 223.19 100.158 223.211 100.232 223.225C100.306 223.237 100.561 223.285 100.803 223.332C101.043 223.375 101.351 223.448 101.482 223.492C101.614 223.535 101.863 223.616 102.031 223.681C102.197 223.741 102.416 223.832 102.513 223.883C102.609 223.93 102.736 224 102.798 224.034C102.855 224.068 103.008 224.167 103.136 224.258C103.263 224.343 103.381 224.416 103.404 224.416C103.421 224.416 103.588 224.567 103.772 224.752C103.961 224.933 104.114 225.097 104.114 225.118C104.114 225.136 104.18 225.231 104.263 225.333C104.342 225.432 104.478 225.639 104.565 225.794C104.649 225.949 104.781 226.229 104.851 226.419C104.921 226.608 105.021 226.896 105.07 227.064C105.118 227.232 105.193 227.598 105.241 227.882C105.316 228.364 105.32 228.773 105.32 233.809C105.32 237.356 105.307 239.237 105.276 239.267C105.246 239.302 104.724 239.314 103.565 239.31C102.324 239.306 101.89 239.293 101.868 239.255C101.851 239.224 101.833 238.057 101.833 236.663C101.833 234.67 101.824 234.11 101.78 234.067C101.736 234.024 100.684 234.015 96.6486 234.015C93.8547 234.015 91.5392 234.024 91.5043 234.037C91.4471 234.055 91.4382 234.381 91.4382 236.633C91.4426 238.681 91.4292 239.211 91.3854 239.255C91.3416 239.293 90.9123 239.306 89.7282 239.31C88.8463 239.314 88.0919 239.306 88.0524 239.293C87.9779 239.267 87.9735 238.97 87.9866 233.706C87.9998 228.184 87.9998 228.136 88.0963 227.645C88.1489 227.374 88.2629 226.948 88.3506 226.698C88.4384 226.448 88.5436 226.169 88.5919 226.074C88.6357 225.98 88.7673 225.751 88.8813 225.571C88.9997 225.389 89.1796 225.14 89.2892 225.015C89.3989 224.891 89.5439 224.74 89.6137 224.68C89.6844 224.619 89.7765 224.537 89.8114 224.503C89.8507 224.468 90.0483 224.326 90.2541 224.197C90.4606 224.064 90.737 223.905 90.8685 223.844C90.9999 223.788 91.2101 223.698 91.329 223.651C91.4516 223.603 91.6492 223.535 91.7673 223.495C91.8898 223.461 92.1536 223.397 92.3593 223.362C92.5659 223.324 92.802 223.277 92.8861 223.259C92.9693 223.237 93.1973 223.216 93.3905 223.211C93.5828 223.207 93.75 223.194 93.7625 223.185C93.776 223.173 95.206 223.169 96.9428 223.181ZM93.1929 226.694C92.9827 226.729 92.7144 226.81 92.5784 226.883C92.447 226.948 92.2976 227.029 92.2457 227.055C92.1974 227.086 92.0696 227.194 91.9694 227.301C91.8683 227.409 91.7369 227.581 91.6752 227.688C91.6179 227.796 91.5437 227.981 91.5178 228.097C91.4909 228.217 91.4605 228.808 91.4516 229.41C91.4381 230.263 91.4471 230.516 91.4909 230.538C91.5213 230.555 93.8332 230.572 96.6271 230.572C99.4166 230.572 101.732 230.563 101.768 230.551C101.824 230.533 101.833 230.374 101.833 229.466C101.833 228.867 101.812 228.286 101.785 228.14C101.759 227.998 101.688 227.796 101.635 227.688C101.579 227.581 101.478 227.435 101.407 227.365C101.342 227.292 101.171 227.15 101.035 227.051C100.895 226.953 100.754 226.87 100.728 226.87C100.697 226.87 100.614 226.84 100.539 226.806C100.465 226.767 100.311 226.72 100.188 226.694C100.07 226.668 99.8288 226.634 99.6625 226.612C99.4953 226.59 98.1225 226.578 96.6137 226.578C95.1049 226.582 93.8028 226.59 93.7187 226.604C93.6356 226.616 93.3986 226.655 93.1929 226.694ZM127.688 223.194L128.061 223.306C128.268 223.367 128.623 223.504 128.851 223.616C129.079 223.724 129.307 223.835 129.351 223.866C129.399 223.896 129.508 223.969 129.597 224.029C129.68 224.09 129.873 224.236 130.017 224.352C130.167 224.473 130.312 224.61 130.346 224.657C130.381 224.709 130.509 224.869 130.627 225.019C130.75 225.165 130.904 225.377 130.97 225.484C131.035 225.597 131.123 225.755 131.158 225.838C131.193 225.919 131.25 226.048 131.285 226.117C131.316 226.186 131.355 226.315 131.373 226.396C131.39 226.479 131.421 226.565 131.443 226.59C131.461 226.616 131.509 226.831 131.544 227.077C131.583 227.318 131.614 227.684 131.614 227.895C131.614 228.101 131.583 228.454 131.548 228.678C131.514 228.902 131.438 229.221 131.378 229.389C131.32 229.556 131.242 229.758 131.206 229.84C131.171 229.923 131.065 230.116 130.973 230.271C130.886 230.426 130.768 230.603 130.719 230.667C130.667 230.727 130.583 230.835 130.531 230.904C130.478 230.968 130.36 231.102 130.268 231.201C130.176 231.295 129.961 231.48 129.794 231.61C129.623 231.739 129.425 231.881 129.355 231.928C129.28 231.976 129.075 232.087 128.895 232.174C128.715 232.264 128.416 232.384 128.237 232.444C128.057 232.505 127.864 232.552 127.812 232.552C127.737 232.552 127.711 232.578 127.711 232.651C127.715 232.703 127.781 232.836 127.864 232.952C127.948 233.065 128.018 233.164 128.018 233.176C128.018 233.19 128.066 233.262 128.128 233.34C128.184 233.413 128.237 233.491 128.237 233.512C128.237 233.529 128.342 233.693 128.469 233.878C128.593 234.063 128.724 234.253 128.754 234.3C128.785 234.343 128.864 234.464 128.93 234.567C128.996 234.67 129.171 234.941 129.324 235.17C129.474 235.397 129.601 235.591 129.597 235.6C129.597 235.604 129.676 235.716 129.772 235.845C129.869 235.974 129.948 236.091 129.948 236.103C129.948 236.116 130 236.207 130.066 236.31C130.132 236.409 130.197 236.5 130.21 236.512C130.224 236.526 130.355 236.715 130.496 236.934C130.641 237.158 130.789 237.386 130.825 237.442C130.86 237.498 130.987 237.696 131.106 237.877C131.224 238.062 131.417 238.355 131.535 238.527C131.649 238.695 131.746 238.854 131.746 238.88C131.746 238.905 131.759 238.922 131.781 238.922C131.798 238.922 131.851 238.996 131.899 239.095C131.947 239.189 131.979 239.276 131.965 239.288C131.952 239.302 131.083 239.31 130.035 239.31C128.987 239.31 128.075 239.31 128.009 239.31C127.912 239.31 127.856 239.267 127.746 239.108C127.667 238.996 127.592 238.884 127.579 238.858C127.566 238.837 127.46 238.669 127.342 238.492C127.223 238.315 127.039 238.036 126.93 237.868C126.82 237.7 126.64 237.421 126.522 237.244C126.408 237.067 126.29 236.895 126.267 236.869C126.241 236.84 126.219 236.801 126.219 236.784C126.219 236.762 126.166 236.684 126.11 236.611C126.048 236.534 126 236.46 126 236.448C126 236.435 125.921 236.318 125.825 236.189C125.728 236.061 125.649 235.944 125.649 235.931C125.649 235.919 125.614 235.858 125.571 235.794C125.526 235.725 125.399 235.539 125.29 235.371C125.18 235.204 124.917 234.808 124.701 234.489C124.487 234.171 124.302 233.89 124.294 233.865C124.285 233.84 124.228 233.762 124.175 233.693C124.118 233.624 124.07 233.551 124.07 233.533C124.07 233.512 123.947 233.318 123.798 233.103C123.645 232.883 123.505 232.69 123.478 232.673C123.456 232.656 122.549 232.642 119.486 232.659L119.478 235.931C119.469 238.535 119.456 239.215 119.412 239.258C119.368 239.297 118.956 239.31 117.666 239.31C116.351 239.31 115.969 239.302 115.948 239.258C115.93 239.229 115.913 235.626 115.913 231.253C115.913 226.875 115.925 223.268 115.939 223.233C115.965 223.173 116.592 223.169 127.688 223.194ZM119.478 227.946L119.486 229.216H127.119C127.451 229.049 127.623 228.933 127.72 228.85C127.815 228.768 127.943 228.605 128.004 228.484C128.088 228.308 128.11 228.201 128.114 227.903C128.114 227.581 128.101 227.511 127.992 227.305C127.921 227.176 127.785 227.003 127.688 226.927C127.592 226.845 127.425 226.737 127.315 226.686L127.119 226.59C120.246 226.569 119.504 226.578 119.491 226.62C119.483 226.651 119.478 227.249 119.478 227.946ZM141.812 223.177C143.381 223.177 144.878 223.19 145.145 223.211C145.412 223.233 145.825 223.289 146.066 223.336C146.307 223.384 146.64 223.461 146.811 223.509C146.983 223.551 147.22 223.634 147.338 223.685C147.46 223.736 147.645 223.818 147.755 223.87C147.864 223.917 148.11 224.059 148.303 224.184C148.496 224.309 148.781 224.533 148.939 224.683C149.097 224.834 149.325 225.08 149.443 225.235C149.561 225.389 149.763 225.717 149.895 225.966C150.022 226.216 150.167 226.543 150.215 226.698C150.263 226.853 150.355 227.202 150.535 227.968L150.558 230.766C150.57 232.307 150.57 233.774 150.549 234.037C150.531 234.3 150.487 234.636 150.452 234.79C150.417 234.946 150.378 235.148 150.36 235.243C150.342 235.337 150.281 235.561 150.224 235.737C150.162 235.914 150.017 236.254 149.904 236.491C149.785 236.727 149.593 237.046 149.474 237.201C149.356 237.356 149.097 237.632 148.899 237.816C148.706 237.998 148.412 238.23 148.246 238.333C148.084 238.432 147.86 238.557 147.755 238.605C147.645 238.656 147.46 238.738 147.338 238.785C147.22 238.832 146.983 238.91 146.811 238.962C146.64 239.013 146.377 239.082 146.219 239.121C146.062 239.16 145.649 239.215 145.298 239.25C144.838 239.288 143.904 239.306 141.921 239.306C139.943 239.306 139.005 239.288 138.544 239.246C138.193 239.215 137.71 239.147 137.47 239.095C137.228 239.043 137.014 238.988 136.987 238.97C136.961 238.948 136.864 238.914 136.768 238.889C136.671 238.867 136.482 238.798 136.351 238.742C136.22 238.69 136.101 238.634 136.088 238.622C136.075 238.608 136.005 238.574 135.934 238.539C135.864 238.509 135.644 238.381 135.452 238.256C135.259 238.131 134.956 237.885 134.776 237.709C134.601 237.537 134.368 237.278 134.267 237.136C134.163 236.994 134.009 236.744 133.926 236.576C133.838 236.409 133.711 236.112 133.636 235.91C133.566 235.707 133.495 235.466 133.478 235.371C133.46 235.277 133.43 235.182 133.412 235.156C133.395 235.13 133.347 234.868 133.307 234.567C133.25 234.106 133.237 233.542 133.237 231.209C133.241 228.687 133.25 228.342 133.32 227.86C133.368 227.563 133.447 227.168 133.5 226.978C133.553 226.788 133.614 226.616 133.636 226.59C133.658 226.565 133.675 226.521 133.675 226.496C133.675 226.466 133.715 226.349 133.767 226.238C133.816 226.121 133.882 225.984 133.912 225.923C133.943 225.864 133.995 225.768 134.031 225.708C134.066 225.652 134.193 225.467 134.315 225.299C134.434 225.136 134.662 224.873 134.82 224.727C134.974 224.576 135.289 224.331 135.517 224.184C135.746 224.038 136.005 223.887 136.088 223.853C136.171 223.814 136.369 223.736 136.526 223.676C136.685 223.616 136.948 223.53 137.118 223.478C137.289 223.426 137.592 223.353 137.798 223.31C138.005 223.272 138.351 223.229 138.566 223.211C138.781 223.194 140.246 223.181 141.812 223.177ZM138.479 226.681C138.307 226.72 138.062 226.788 137.93 226.84C137.798 226.887 137.609 226.982 137.514 227.043C137.417 227.107 137.263 227.244 137.171 227.348C137.075 227.452 136.948 227.645 136.886 227.774L136.768 228.011V234.511C136.965 234.877 137.132 235.092 137.268 235.221C137.404 235.35 137.606 235.501 137.71 235.557C137.82 235.608 138.018 235.681 138.15 235.72C138.281 235.754 138.5 235.811 138.632 235.836C138.807 235.875 139.732 235.888 141.943 235.888H145.014C145.623 235.728 145.903 235.638 146.022 235.583C146.145 235.531 146.338 235.402 146.456 235.298C146.575 235.196 146.724 235.036 146.794 234.941C146.859 234.846 146.956 234.614 147.004 234.424C147.096 234.089 147.096 233.99 147.096 231.218C147.096 228.433 147.092 228.347 147.004 228.033C146.952 227.856 146.864 227.641 146.811 227.559C146.755 227.477 146.623 227.331 146.522 227.232C146.417 227.137 146.202 226.995 146.044 226.918C145.886 226.84 145.592 226.737 145.387 226.686C145.026 226.595 144.921 226.595 142.075 226.587C140.456 226.582 139.057 226.587 138.961 226.599C138.864 226.608 138.649 226.642 138.479 226.681ZM158.864 223.173C162.004 223.177 164.772 223.194 165.014 223.211C165.254 223.229 165.632 223.277 165.847 223.315C166.062 223.353 166.369 223.426 166.527 223.478C166.684 223.526 166.921 223.608 167.053 223.655C167.184 223.702 167.412 223.797 167.557 223.866C167.702 223.934 167.86 224.012 167.908 224.042C167.956 224.073 168.057 224.133 168.128 224.18C168.198 224.223 168.347 224.331 168.457 224.416C168.566 224.499 168.781 224.697 168.939 224.856C169.097 225.015 169.241 225.17 169.268 225.2C169.294 225.231 169.36 225.333 169.421 225.429C169.483 225.523 169.557 225.639 169.584 225.687C169.614 225.734 169.693 225.889 169.768 226.031C169.838 226.173 169.934 226.393 169.987 226.517C170.035 226.637 170.079 226.767 170.079 226.797C170.079 226.823 170.119 226.974 170.162 227.128C170.211 227.284 170.289 227.679 170.342 228.011C170.425 228.567 170.43 228.816 170.43 231.231C170.43 233.788 170.425 233.856 170.321 234.545C170.263 234.929 170.185 235.32 170.15 235.414C170.114 235.51 170.084 235.617 170.079 235.652C170.079 235.686 170.026 235.849 169.961 236.018C169.895 236.186 169.764 236.465 169.671 236.642C169.575 236.818 169.4 237.089 169.277 237.244C169.154 237.399 168.957 237.618 168.833 237.735C168.711 237.851 168.474 238.049 168.303 238.173C168.132 238.303 167.978 238.402 167.952 238.402C167.926 238.402 167.877 238.432 167.842 238.471C167.808 238.506 167.728 238.548 167.667 238.557C167.605 238.565 167.527 238.605 167.492 238.643C167.456 238.681 167.364 238.721 167.294 238.738C167.224 238.75 167.123 238.785 167.075 238.815C167.027 238.846 166.917 238.884 166.834 238.901C166.751 238.919 166.663 238.948 166.636 238.97C166.61 238.988 166.355 239.052 166.066 239.113C165.777 239.172 165.272 239.241 164.947 239.263C164.579 239.293 162.224 239.31 158.763 239.31C153.456 239.314 153.167 239.31 153.115 239.237C153.071 239.177 153.062 237.563 153.057 231.248C153.053 225.489 153.066 223.31 153.101 223.251C153.149 223.169 153.259 223.169 158.864 223.173ZM156.566 231.244C156.57 234.863 156.584 235.853 156.627 235.875C156.653 235.893 158.378 235.91 160.452 235.905C162.527 235.905 164.439 235.888 164.706 235.867C164.974 235.845 165.207 235.811 165.233 235.785C165.259 235.763 165.364 235.733 165.474 235.716C165.583 235.699 165.759 235.634 165.869 235.578C165.979 235.522 166.136 235.423 166.219 235.359C166.303 235.294 166.43 235.187 166.496 235.113C166.562 235.045 166.658 234.898 166.711 234.79C166.759 234.683 166.829 234.489 166.86 234.36C166.908 234.171 166.921 233.525 166.921 231.253C166.921 228.691 166.912 228.347 166.847 228.088C166.808 227.925 166.728 227.718 166.675 227.624C166.623 227.529 166.505 227.374 166.412 227.279C166.32 227.185 166.207 227.081 166.158 227.055C166.106 227.025 165.979 226.961 165.869 226.913C165.759 226.862 165.636 226.806 165.597 226.784C165.553 226.759 165.426 226.729 165.311 226.715C165.193 226.698 165.074 226.663 165.04 226.637C164.996 226.604 163.781 226.587 160.803 226.578C158.21 226.569 156.61 226.578 156.593 226.604C156.575 226.629 156.561 228.717 156.566 231.244ZM188.522 223.19L188.531 224.825C188.54 226.07 188.531 226.474 188.487 226.517C188.444 226.561 187.299 226.573 176.527 226.569L176.518 227.852C176.51 228.652 176.522 229.152 176.549 229.186C176.584 229.229 177.579 229.242 186.724 229.259V232.617L176.549 232.659L176.527 234.231C176.513 235.246 176.522 235.824 176.549 235.858C176.584 235.901 177.742 235.914 188.522 235.931L188.531 237.589C188.54 238.501 188.527 239.258 188.509 239.28C188.487 239.297 185.005 239.31 180.768 239.31C176.531 239.31 173.044 239.302 173.018 239.288C172.988 239.276 172.974 236.564 172.974 231.282C172.974 226.892 172.988 223.268 173 223.233C173.022 223.177 173.912 223.169 188.522 223.19ZM202.119 223.203L202.69 223.332C203.001 223.401 203.369 223.492 203.501 223.526C203.632 223.565 203.803 223.625 203.874 223.66C203.943 223.698 204.031 223.728 204.062 223.728C204.088 223.728 204.22 223.784 204.347 223.849C204.47 223.917 204.623 224 204.685 224.034C204.742 224.068 204.931 224.193 205.102 224.314C205.268 224.434 205.496 224.619 205.606 224.723C205.715 224.825 205.887 225.011 205.979 225.127C206.075 225.248 206.194 225.403 206.246 225.472C206.295 225.54 206.431 225.786 206.54 226.009C206.654 226.233 206.746 226.448 206.746 226.483C206.746 226.517 206.764 226.565 206.786 226.59C206.808 226.616 206.878 226.828 206.939 227.064C207 227.301 207.075 227.671 207.101 227.882C207.133 228.093 207.163 228.368 207.176 228.484C207.189 228.605 207.198 229.831 207.198 231.218C207.198 232.604 207.189 233.852 207.176 233.994C207.163 234.136 207.133 234.429 207.101 234.64C207.071 234.851 207.009 235.173 206.961 235.35C206.908 235.527 206.843 235.737 206.808 235.815C206.772 235.888 206.746 235.978 206.746 236.009C206.746 236.035 206.645 236.254 206.523 236.491C206.399 236.727 206.26 236.982 206.207 237.05C206.154 237.119 206.101 237.188 206.088 237.201C206.071 237.214 206.035 237.261 206.009 237.308C205.983 237.356 205.816 237.537 205.641 237.709C205.466 237.881 205.154 238.135 204.948 238.268C204.742 238.402 204.505 238.544 204.422 238.587C204.339 238.626 204.18 238.695 204.07 238.742C203.961 238.789 203.715 238.875 203.522 238.936C203.33 238.996 203.093 239.061 202.996 239.073C202.9 239.09 202.724 239.13 202.601 239.16C202.483 239.189 202.106 239.237 201.768 239.263C201.426 239.288 199.965 239.31 198.457 239.306C196.558 239.306 195.571 239.288 195.123 239.246C194.773 239.215 194.352 239.16 194.18 239.121C194.009 239.078 193.785 239.017 193.676 238.979C193.566 238.944 193.417 238.901 193.347 238.884C193.277 238.867 192.961 238.729 192.654 238.574C192.347 238.423 192.092 238.286 192.097 238.268C192.097 238.247 192.067 238.234 192.031 238.234C191.996 238.234 191.742 238.015 191.47 237.752C191.194 237.481 190.886 237.132 190.777 236.964C190.667 236.796 190.54 236.576 190.487 236.469C190.434 236.361 190.351 236.181 190.307 236.061C190.259 235.944 190.206 235.777 190.189 235.695C190.171 235.612 190.141 235.527 190.123 235.501C190.106 235.475 190.044 235.234 189.987 234.963C189.882 234.468 189.882 234.464 189.882 231.239C189.882 228.019 189.882 228.011 189.983 227.537C190.04 227.275 190.146 226.887 190.22 226.677C190.29 226.466 190.404 226.181 190.474 226.053C190.54 225.923 190.641 225.739 190.694 225.644C190.747 225.549 190.878 225.364 190.978 225.235C191.084 225.106 191.321 224.851 191.509 224.671C191.703 224.49 192 224.253 192.176 224.142C192.347 224.034 192.575 223.905 192.68 223.861C192.781 223.814 192.952 223.741 193.062 223.698C193.172 223.651 193.439 223.565 193.654 223.5C193.869 223.44 194.216 223.353 194.421 223.315C194.628 223.277 194.983 223.229 195.211 223.211C195.439 223.194 197.088 223.185 202.119 223.203ZM195.013 226.698C194.869 226.724 194.681 226.776 194.597 226.814C194.513 226.849 194.373 226.909 194.29 226.944C194.207 226.982 194.031 227.111 193.904 227.232C193.777 227.352 193.632 227.525 193.584 227.615C193.54 227.702 193.461 227.891 193.413 228.033C193.329 228.282 193.325 228.407 193.325 231.239C193.325 234.154 193.325 234.192 193.421 234.48C193.474 234.64 193.557 234.838 193.61 234.92C193.663 235.002 193.803 235.156 193.921 235.264C194.044 235.371 194.251 235.51 194.378 235.574C194.509 235.638 194.785 235.733 194.992 235.785C195.351 235.875 195.453 235.879 198.15 235.897C200.044 235.91 201.097 235.901 201.439 235.867C201.716 235.841 202.062 235.78 202.207 235.733C202.351 235.686 202.58 235.595 202.711 235.535C202.842 235.475 203.054 235.32 203.185 235.196C203.308 235.066 203.461 234.872 203.518 234.761C203.575 234.644 203.646 234.403 203.672 234.223C203.702 234.007 203.72 232.931 203.72 231.231C203.72 229.724 203.698 228.446 203.676 228.282C203.65 228.118 203.579 227.877 203.518 227.744C203.448 227.594 203.303 227.4 203.154 227.258C203.018 227.128 202.83 226.982 202.733 226.939C202.637 226.896 202.496 226.836 202.426 226.806C202.356 226.771 202.198 226.724 202.075 226.698C201.957 226.668 201.707 226.629 201.527 226.612C201.347 226.59 199.965 226.578 198.457 226.578C196.948 226.582 195.619 226.595 195.496 226.612C195.377 226.629 195.158 226.668 195.013 226.698ZM118.588 245.143C127.237 245.152 141.434 245.177 150.145 245.199C158.855 245.22 170.535 245.254 176.11 245.277C181.684 245.298 188.412 245.327 191.067 245.345C193.72 245.367 198.636 245.388 201.987 245.401C205.339 245.414 210.097 245.444 212.558 245.466C215.018 245.487 220.702 245.534 225.189 245.573C232.15 245.629 233.387 245.646 233.624 245.702C233.772 245.737 233.944 245.767 234.005 245.767C234.067 245.767 234.106 245.784 234.092 245.81C234.08 245.835 233.887 245.866 233.668 245.879C233.444 245.892 231.395 245.917 229.115 245.943C226.834 245.965 223.698 245.991 222.141 246.003C220.584 246.017 218.001 246.033 216.395 246.042C214.79 246.051 210.202 246.081 206.198 246.107C202.193 246.133 197.062 246.167 194.794 246.18C192.527 246.197 187.308 246.223 183.194 246.245C179.079 246.266 169.369 246.305 161.614 246.331C153.859 246.357 134.527 246.378 118.654 246.378C102.78 246.378 83.5173 246.357 75.8462 246.331C68.175 246.305 58.4426 246.266 54.2233 246.245C50.0039 246.223 44.6618 246.193 42.3591 246.18C40.0565 246.167 34.8854 246.133 30.8678 246.107C26.8502 246.081 22.2713 246.055 20.6923 246.047C19.1134 246.038 16.5651 246.017 15.0344 246C13.5036 245.986 10.3238 245.956 7.97291 245.934C5.62202 245.917 3.61324 245.887 3.51236 245.875C3.40709 245.861 3.32376 245.84 3.32376 245.823C3.32376 245.801 3.39832 245.759 3.48604 245.719C3.63517 245.655 4.47289 245.642 11.9423 245.577C16.5037 245.539 22.245 245.487 24.7055 245.466C27.166 245.444 31.9336 245.414 35.2977 245.405C38.6617 245.393 44.3285 245.367 47.8854 245.341C51.4425 245.319 60.7408 245.276 68.5435 245.254C76.3462 245.229 87.184 245.207 92.6223 245.203C98.0616 245.203 102.592 245.185 102.688 245.168C102.785 245.147 109.938 245.138 118.588 245.143ZM2.46849 245.767C2.89393 245.767 3.14832 245.784 3.14832 245.81C3.14832 245.835 2.89393 245.853 2.46849 245.853C2.04305 245.853 1.78866 245.835 1.78866 245.81C1.78866 245.784 2.04305 245.767 2.46849 245.767ZM234.838 245.767C235.057 245.767 235.211 245.784 235.211 245.81C235.211 245.835 235.057 245.853 234.838 245.853C234.619 245.853 234.465 245.835 234.465 245.81C234.465 245.784 234.619 245.767 234.838 245.767Z" fill="white"/>
</svg>
